PathFileType	4	(X/Y/Z)	/home/abdul/Desktop/myosuite/custom_workspace/IK/output/S19_12_1.trc
DataRate	CameraRate	NumFrames	NumMarkers	Units	OrigDataRate	OrigDataStartFrame	OrigNumFrames
200.0	200.0	39	3	mm	200.0	1271	1694
Frame#	Time	V_Shoulder			V_Elbow			V_Wrist		
		X1	Y1	Z1	X2	Y2	Z2	X3	Y3	Z3

1271	6.35	-114.78960084134745	680.8732214493326	314.71057485103273				-198.9350049607898	330.77222271024755	30.713042001545602
1272	6.355	-114.86177960408595	681.1066487069156	314.7394302505654				-198.66389993349281	330.8391870519938	30.727888254867786
1273	6.36	-114.930439061521	681.33684717325	314.7697882989062				-198.39914687741987	330.90345816753677	30.74498752230756
1274	6.365	-114.9955576428081	681.5638732571448	314.80164669763207				-198.1410100168803	330.9653360316659	30.764047422339978
1275	6.37	-115.05711702028471	681.7877843344395	314.8350009424077				-197.889719031197	331.0251046808746	30.784789107770408
1276	6.375	-115.1151020938014	682.0086385974918	314.8698443521253				-197.6454700133433	331.0830318308629	30.806947457041513
1277	6.38	-115.16950097064728	682.2264949061272	314.90616810207683				-197.4084264927228	331.1393685777644	30.830271208976573
1278	6.385	-115.22030494120277	682.4414126403736	314.9439612609848				-197.17872051633557	331.19434918225005	30.854523042740695
1279	6.39	-115.26750845045967	682.6534515552934	314.9832108317125				-196.95645378258592	331.2481909352167	30.879479604968715
1280	6.395	-115.31110906555425	682.8626716382131	315.0239017954641				-196.74169882201866	331.30109410334353	30.904931486159846
1281	6.4	-115.35110743946582	683.069132968647	315.06601715928036				-196.53450021932187	331.35324195239656	30.930683148573817
1282	6.405	-115.3875072710374	683.2728955811898	315.1095380066302				-196.33487587100296	331.40480084578667	30.956552807981687
1283	6.41	-115.4203152614801	683.474019331651	315.1544435508917				-196.1428182732309	331.45592041553573	30.9823722717262
1284	6.415	-115.44954106752681	683.6725637666815	315.20071119151504				-195.9582958344394	331.5067338024844	31.007986735631867
1285	6.42	-115.47519725140455	683.8685879971396	315.24831657265423				-195.78125420740383	331.55735796228635	31.033254542374216
1286	6.425	-115.49729922779677	684.0621505754189	315.2972336440537				-195.61161763563462	331.60789403346973	31.05804690397073
1287	6.43	-115.5158652079703	684.2533093769586	315.3474347239738				-195.44929030907485	331.6584277636238	31.082247591094017
1288	6.435	-115.53091614124287	684.4421214861324	315.3988905639399				-195.2941577242454	331.7090299895666	31.105752591930546
1289	6.44	-115.54247565396842	684.6286430867008	315.4515704150993				-195.14608804414917	331.75975716719284	31.1284697433169
1290	6.445	-115.55056998621755	684.812929357	315.50544209597166				-195.00493345342204	331.81065194656594	31.150318336880094
1291	6.45	-115.55522792633208	684.9950343700201	315.5604720613807				-194.87053150440562	331.86174378772057	31.17122870289085
1292	6.455	-115.55648074353066	685.1750109985123	315.61662547235704				-194.74270645001164	331.9130496125771	31.191141774507773
1293	6.46	-115.55436211874253	685.3529108252524	315.67386626680735				-194.62127055944876	331.96457448833223	31.210008635049032
1294	6.465	-115.54890807384503	685.5287840585662	315.7321572307474				-194.50602541309337	332.016312337685	31.22779005087567
1295	6.47	-115.54015689947842	685.7026794532153	315.79146006990226				-194.39676317299728	332.06824667128114	31.244455992408604
1296	6.475	-115.52814908160967	685.8746442367159	315.8517354814817				-194.29326782574643	332.12035133780995	31.259985145730482
1297	6.48	-115.51292722701363	686.0447240411607	315.9129432259471				-194.1953163946054	332.1725912872648	31.27436441714495
1298	6.485	-115.49453598783786	686.2129628405875	315.97504219858916				-194.1026801181089	332.22492334298107	31.287588432979774
1299	6.49	-115.47302198541267	686.3794028939325	316.0379905007463				-194.01512559248835	332.27729697818944	31.299659036828572
1300	6.495	-115.44843373346559	686.5440846935845	316.1017455104991				-193.93241587554988	332.32965509296923	31.310584786328416
1301	6.5	-115.42082156089337	686.7070469195481	316.16626395268503				-193.85431154984997	332.38193478765004	31.320380451469035
1302	6.505	-115.39023753424216	686.8683263992056	316.2315019680852				-193.78057174324226	332.43406812889276	31.32906651632381
1303	6.51	-115.35673538003975	687.0279580726555	316.2974151816449				-193.71095510509673	332.48598290487706	31.336668685984726
1304	6.515	-115.32037040712028	687.1859749635964	316.36395876959773				-193.6452207367177	332.5376033662344	31.343217400373202
1305	6.52	-115.2811994290754	687.3424081557037	316.4310875253713				-193.58312907470923	332.5888509495849	31.34874735648703
1306	6.525	-115.23928068696056	687.4972867744423	316.49875592416464				-193.5244427262553	332.6396449807662	31.353297040531373
1307	6.53	-115.19467377237991	687.6506379742444	316.5669181860931				-193.4689272554965	332.689903355081	31.356908271269308
1308	6.535	-115.14743955106684	687.8024869309678	316.6355283378097				-193.41635192039513	332.7395431921309	31.359625755815497
1309	6.54	-115.09764008707111	687.9528568395443	316.70454027251736				-193.36649035968352	332.7884814630472	31.36149665898548
